<svg xmlns="http://www.w3.org/2000/svg" viewBox="0 0 48 48" role="img" aria-labelledby="waTitle waDesc">
  <title id="waTitle">WhatsApp icon</title>
  <desc id="waDesc">Green WhatsApp logo icon</desc>
  <defs>
    <linearGradient id="waGrad" x1="0%" y1="0%" x2="100%" y2="100%">
      <stop offset="0%" stop-color="#4CEB7C"/>
      <stop offset="100%" stop-color="#25D366"/>
    </linearGradient>
  </defs>
  <rect x="1.5" y="1.5" width="45" height="45" rx="10" fill="url(#waGrad)"/>
  <path fill="#FFF" d="M24 8.3c-8.66 0-15.68 7.02-15.68 15.68 0 2.75.71 5.34 1.95 7.59l-2.06 7.53 7.72-2.02A15.6 15.6 0 0 0 24 39.66c8.66 0 15.68-7.02 15.68-15.68S32.66 8.3 24 8.3Zm0 28.7c-2.34 0-4.61-.62-6.61-1.79l-.47-.28-4.58 1.2 1.22-4.45-.31-.46a12.9 12.9 0 1 1 10.75 5.78Zm7.08-9.66c-.39-.2-2.28-1.12-2.63-1.25-.35-.13-.61-.2-.86.2-.26.39-1 1.25-1.23 1.5-.22.26-.45.29-.84.1a10.58 10.58 0 0 1-3.11-1.91 11.65 11.65 0 0 1-2.15-2.68c-.22-.38-.03-.58.17-.77.18-.18.39-.45.58-.67.19-.23.26-.39.39-.65.13-.26.07-.49-.03-.68-.1-.2-.86-2.06-1.18-2.82-.31-.75-.62-.65-.86-.66l-.74-.01c-.26 0-.68.1-1.03.49-.35.38-1.35 1.32-1.35 3.21s1.38 3.72 1.57 3.98a17.9 17.9 0 0 0 6.85 6.05c1.08.47 1.92.75 2.57.96 1.08.35 2.06.3 2.84.18.87-.13 2.68-1.1 3.06-2.17.39-1.06.39-1.98.27-2.17-.11-.2-.41-.31-.8-.51Z"/>
</svg>
